<?xml version="1.0" encoding="UTF-8" standalone="no"?>
<svg
   xmlns:dc="http://purl.org/dc/elements/1.1/"
   xmlns:cc="http://creativecommons.org/ns#"
   xmlns:rdf="http://www.w3.org/1999/02/22-rdf-syntax-ns#"
   xmlns:svg="http://www.w3.org/2000/svg"
   xmlns="http://www.w3.org/2000/svg"
   viewBox="0 0 793.33331 1122.6667"
   height="1122.6667"
   width="793.33331"
   xml:space="preserve"
   id="svg2"
   version="1.1"><metadata
     id="metadata8"><rdf:RDF><cc:Work
         rdf:about=""><dc:format>image/svg+xml</dc:format><dc:type
           rdf:resource="http://purl.org/dc/dcmitype/StillImage" /></cc:Work></rdf:RDF></metadata><defs
     id="defs6"><clipPath
       id="clipPath20"
       clipPathUnits="userSpaceOnUse"><path
         id="path18"
         d="m 54,51.13078 h 487 v 736.8692 H 54 Z" /></clipPath><clipPath
       id="clipPath30"
       clipPathUnits="userSpaceOnUse"><path
         id="path28"
         d="m 55.95976,51.13078 h 483.0805 v 736.8692 H 55.95976 Z" /></clipPath></defs><g
     transform="matrix(1.3333333,0,0,-1.3333333,0,1122.6667)"
     id="g10"><g
       id="g12" /><g
       id="g14"><g
         clip-path="url(#clipPath20)"
         id="g16"><path
           id="path22"
           style="fill:#ffffff;fill-opacity:1;fill-rule:nonzero;stroke:none"
           d="M 54,788 H 541 V -226853.1 H 54 Z" /></g></g><g
       id="g24"><g
         clip-path="url(#clipPath30)"
         id="g26"><g
           transform="matrix(0.9798793,0,0,-0.9798793,54,788)"
           id="g32"><text
             id="text36"
             style="font-variant:normal;font-weight:normal;font-size:12px;writing-mode:lr-tb;fill:#454545;fill-opacity:1;fill-rule:nonzero;stroke:none"
             transform="translate(23,12)"><tspan
               id="tspan34"
               y="0"
               x="0 7.5588002 13.6644 19.934401 27.2472 30.622801 36.9156 47.3568 50.391602 57.3936 63.6744 71.2332 76.963203 84.024002 88.383598 92.743202 100.068 103.6308 107.2872 110.9436 120.2364 129.52921 137.9436 140.6268 149.9196 157.0332 160.36079 167.45039 171.8448 179.15759 182.814 190.056 197.61481 205.1736 212.73241 216.38879 222.4944 228.7644 236.07719 241.80721 245.1828 251.6868 254.65199 261.5076 270.80042 278.6868 285.48361 291.366 298.9248 304.47961 312.03839 315.414 322.97281 326.34839 333.76682 341.43121 348.84961 352.22519 359.94839 367.58881 374.83081 380.56079">&lt;svg xmlns=&quot;http://www.w3.org/2000/svg&quot; viewBox=&quot;0 0 585 462&quot; </tspan></text>
</g><g
           transform="matrix(0.9798793,0,0,-0.9798793,54,788)"
           id="g38"><text
             id="text42"
             style="font-variant:normal;font-weight:normal;font-size:12px;writing-mode:lr-tb;fill:#454545;fill-opacity:1;fill-rule:nonzero;stroke:none"
             transform="translate(23,28)"><tspan
               id="tspan40"
               y="0"
               x="0 9.2927999 12.2616 19.634399 23.995199 31.056 38.608799 44.337601 51.7584 59.419201 66.839996 72.568802 75.945602 83.006401 89.863197 92.832001 100.1448 107.2056 111.5664 119.1192 124.092 131.81281 139.4496 146.6904">width=&quot;585&quot; height=&quot;462&quot;</tspan></text>
</g><g
           transform="matrix(0.9798793,0,0,-0.9798793,54,788)"
           id="g44"><text
             id="text48"
             style="font-variant:normal;font-weight:normal;font-size:12px;writing-mode:lr-tb;fill:#454545;fill-opacity:1;fill-rule:nonzero;stroke:none"
             transform="translate(50.0048,44)"><tspan
               id="tspan46"
               y="0"
               x="0 7.3248 11.7192 18.5748 24.8556 31.711201 36.3396 42.6096 49.231201 57.200401 63.481201 70.806 77.661598 84.493202 88.852798 96.692398 103.314 107.6736 110.6388 117.7284 125.2872 131.0172 137.31 147.798 150.7632 158.1348 165.9984 176.4864 179.4516 186.8232 190.19881 200.64 207.49561 214.3512 218.7108">preserveAspectRatio=&quot;xMidYMid meet&quot;</tspan></text>
</g><g
           transform="matrix(0.9798793,0,0,-0.9798793,54,788)"
           id="g50"><text
             id="text54"
             style="font-variant:normal;font-weight:normal;font-size:12px;writing-mode:lr-tb;fill:#454545;fill-opacity:1;fill-rule:nonzero;stroke:none"
             transform="translate(50.0048,60)"><tspan
               id="tspan52"
               y="0"
               x="0 6.2231998 10.5828 17.098801 20.1336 26.989201 34.548 40.278 49.570801 52.535999 59.9076 64.267197 71.328003 74.8908 78.266403 83.833199 91.391998 98.950798 110.0544 113.6172 116.9928 124.0536 130.90919 133.8744 141.18719 148.248 152.6076 156.17039 159.54601 165.11279 172.6716 180.23039 191.334 194.8968 198.2724 202.632 207.2028 213.8244 220.8264 227.10719 231.1848 238.2744 242.96159 253.4028 256.96561 260.34119 264.70081 269.27161 275.89319 282.8952 289.17599 292.21078 298.8324 303.1044 309.95999 317.48401 324.85559 329.43719 336.996 344.02679 350.31961 353.88239 357.258 364.8168 371.8476 378.14041 381.70319 385.0788 392.6376 399.6684 405.96121 410.54279 414.10559">style=&quot;width: 100%; height: 100%; transform: translate3d(0px, 0px, 0px); </tspan></text>
</g><g
           transform="matrix(0.9798793,0,0,-0.9798793,54,788)"
           id="g56"><text
             id="text60"
             style="font-variant:normal;font-weight:normal;font-size:12px;writing-mode:lr-tb;fill:#454545;fill-opacity:1;fill-rule:nonzero;stroke:none"
             transform="translate(23,76)"><tspan
               id="tspan58"
               y="0"
               x="0 6.7151999 13.8048 20.806801 25.0788 31.934401 38.936401 43.060799 48.6036 55.107601 58.0728 64.3536 67.318802 74.690399 77.655602 80.690399 83.655602 88.015198 94.531197 98.094002 101.4696 107.9736 110.9388 117.2196 120.1848 127.5564 130.5912 137.44679 141.0096 146.73959">content-visibility: visible;&quot;&gt;</tspan></text>
</g><g
           transform="matrix(0.9798793,0,0,-0.9798793,54,788)"
           id="g62"><text
             id="text66"
             style="font-variant:normal;font-weight:normal;font-size:12px;writing-mode:lr-tb;fill:#454545;fill-opacity:1;fill-rule:nonzero;stroke:none"
             transform="translate(50.0048,92)"><tspan
               id="tspan64"
               y="0"
               x="0 7.5636001 14.9352 21.7908 25.8384 32.118">&lt;defs&gt;</tspan></text>
</g><g
           transform="matrix(0.9798793,0,0,-0.9798793,54,788)"
           id="g68"><text
             id="text72"
             style="font-variant:normal;font-weight:normal;font-size:12px;writing-mode:lr-tb;fill:#454545;fill-opacity:1;fill-rule:nonzero;stroke:none"
             transform="translate(63.5072,108)"><tspan
               id="tspan70"
               y="0"
               x="0 7.5636001 14.2752 17.3148 20.2824 27.606001 34.989601 41.605202 45.964802 53.024399 56.400002 59.367599 66.739197 74.302803">&lt;clipPath id=&quot;</tspan></text>
</g><g
           transform="matrix(0.9798793,0,0,-0.9798793,54,788)"
           id="g74"><text
             id="text78"
             style="font-variant:normal;font-weight:normal;font-size:12px;writing-mode:lr-tb;fill:#454545;fill-opacity:1;fill-rule:nonzero;stroke:none"
             transform="translate(143.5273,108)"><tspan
               id="tspan76"
               y="0"
               x="0 6.5328002">__</tspan></text>
</g><g
           transform="matrix(0.9798793,0,0,-0.9798793,54,788)"
           id="g80"><text
             id="text84"
             style="font-variant:normal;font-weight:normal;font-size:12px;writing-mode:lr-tb;fill:#454545;fill-opacity:1;fill-rule:nonzero;stroke:none"
             transform="translate(157.0625,108)"><tspan
               id="tspan82"
               y="0"
               x="0 3.0348001 10.1256 14.4804 18.835199 21.798">lottie</tspan></text>
</g><g
           transform="matrix(0.9798793,0,0,-0.9798793,54,788)"
           id="g86"><text
             id="text90"
             style="font-variant:normal;font-weight:normal;font-size:12px;writing-mode:lr-tb;fill:#454545;fill-opacity:1;fill-rule:nonzero;stroke:none"
             transform="translate(185.4922,108)"><tspan
               id="tspan88"
               y="0"
               x="0">_</tspan></text>
</g><g
           transform="matrix(0.9798793,0,0,-0.9798793,54,788)"
           id="g92"><text
             id="text96"
             style="font-variant:normal;font-weight:normal;font-size:12px;writing-mode:lr-tb;fill:#454545;fill-opacity:1;fill-rule:nonzero;stroke:none"
             transform="translate(192.1426,108)"><tspan
               id="tspan94"
               y="0"
               x="0 6.8555999 9.8951998 16.750799 27.194401 34.049999 41.049599">element</tspan></text>
</g><g
           transform="matrix(0.9798793,0,0,-0.9798793,54,788)"
           id="g98"><text
             id="text102"
             style="font-variant:normal;font-weight:normal;font-size:12px;writing-mode:lr-tb;fill:#454545;fill-opacity:1;fill-rule:nonzero;stroke:none"
             transform="translate(237.5469,108)"><tspan
               id="tspan100"
               y="0"
               x="0">_</tspan></text>
</g><g
           transform="matrix(0.9798793,0,0,-0.9798793,54,788)"
           id="g104"><text
             id="text108"
             style="font-variant:normal;font-weight:normal;font-size:12px;writing-mode:lr-tb;fill:#454545;fill-opacity:1;fill-rule:nonzero;stroke:none"
             transform="translate(243.9629,108)"><tspan
               id="tspan106"
               y="0"
               x="0 7.5240002 15.048 21.879601 29.121599 34.851601">3372&quot;&gt;</tspan></text>
</g><g
           transform="matrix(0.9798793,0,0,-0.9798793,54,788)"
           id="g110"><text
             id="text114"
             style="font-variant:normal;font-weight:normal;font-size:12px;writing-mode:lr-tb;fill:#454545;fill-opacity:1;fill-rule:nonzero;stroke:none"
             transform="translate(77.0096,124)"><tspan
               id="tspan112"
               y="0"
               x="0 7.5636001 11.9592 18.8148 25.6464 30.006001 33.381599 42.673199 45.6408 53.012402 57.372002 64.431602 71.995201 77.722801 85.142403 92.802002 100.2216 105.9492 109.3248 116.3844 123.24 126.2076 133.5192 140.5788 144.9384 152.502 157.4736 165.19321 172.8288 180.06841 185.79601 189.1716 195.05521 202.6188 208.17841 215.562 221.2896 224.66521 230.7168 238.2804 243.84 251.2236 256.9512 264.5148 272.0784 275.73001 280.12561 286.9812 293.81281 298.17239">&lt;rect width=&quot;585&quot; height=&quot;462&quot; x=&quot;0&quot; y=&quot;0&quot;&gt;&lt;/rect&gt;</tspan></text>
</g><g
           transform="matrix(0.9798793,0,0,-0.9798793,54,788)"
           id="g116"><text
             id="text120"
             style="font-variant:normal;font-weight:normal;font-size:12px;writing-mode:lr-tb;fill:#454545;fill-opacity:1;fill-rule:nonzero;stroke:none"
             transform="translate(63.5072,140)"><tspan
               id="tspan118"
               y="0"
               x="0 7.5636001 11.2152 17.9268 20.9664 23.934 31.257601 38.641201 45.256802 49.616402 56.675999">&lt;/clipPath&gt;</tspan></text>
</g><g
           transform="matrix(0.9798793,0,0,-0.9798793,54,788)"
           id="g122"><text
             id="text126"
             style="font-variant:normal;font-weight:normal;font-size:12px;writing-mode:lr-tb;fill:#454545;fill-opacity:1;fill-rule:nonzero;stroke:none"
             transform="translate(50.0048,156)"><tspan
               id="tspan124"
               y="0"
               x="0 7.5636001 11.2152 18.5868 25.4424 29.49 35.7696">&lt;/defs&gt;</tspan></text>
</g><g
           transform="matrix(0.9798793,0,0,-0.9798793,54,788)"
           id="g128"><text
             id="text132"
             style="font-variant:normal;font-weight:normal;font-size:12px;writing-mode:lr-tb;fill:#454545;fill-opacity:1;fill-rule:nonzero;stroke:none"
             transform="translate(50.0048,172)"><tspan
               id="tspan130"
               y="0"
               x="0 7.5636001 14.8752 18.250799 24.9624 28.002001 30.969601 38.293201 43.948799 51.2724 57.888 62.247601 69.307198 76.870796 82.598396 89.598 94.173599 97.213203 101.7888">&lt;g clip-path=&quot;url(#</tspan></text>
</g><g
           transform="matrix(0.9798793,0,0,-0.9798793,54,788)"
           id="g134"><text
             id="text138"
             style="font-variant:normal;font-weight:normal;font-size:12px;writing-mode:lr-tb;fill:#454545;fill-opacity:1;fill-rule:nonzero;stroke:none"
             transform="translate(159.3477,172)"><tspan
               id="tspan136"
               y="0"
               x="0 6.5328002">__</tspan></text>
</g><g
           transform="matrix(0.9798793,0,0,-0.9798793,54,788)"
           id="g140"><text
             id="text144"
             style="font-variant:normal;font-weight:normal;font-size:12px;writing-mode:lr-tb;fill:#454545;fill-opacity:1;fill-rule:nonzero;stroke:none"
             transform="translate(172.8828,172)"><tspan
               id="tspan142"
               y="0"
               x="0 3.0348001 10.1256 14.4804 18.835199 21.798">lottie</tspan></text>
</g><g
           transform="matrix(0.9798793,0,0,-0.9798793,54,788)"
           id="g146"><text
             id="text150"
             style="font-variant:normal;font-weight:normal;font-size:12px;writing-mode:lr-tb;fill:#454545;fill-opacity:1;fill-rule:nonzero;stroke:none"
             transform="translate(201.3125,172)"><tspan
               id="tspan148"
               y="0"
               x="0">_</tspan></text>
</g><g
           transform="matrix(0.9798793,0,0,-0.9798793,54,788)"
           id="g152"><text
             id="text156"
             style="font-variant:normal;font-weight:normal;font-size:12px;writing-mode:lr-tb;fill:#454545;fill-opacity:1;fill-rule:nonzero;stroke:none"
             transform="translate(207.9629,172)"><tspan
               id="tspan154"
               y="0"
               x="0 6.8555999 9.8951998 16.750799 27.194401 34.049999 41.049599">element</tspan></text>
</g><g
           transform="matrix(0.9798793,0,0,-0.9798793,54,788)"
           id="g158"><text
             id="text162"
             style="font-variant:normal;font-weight:normal;font-size:12px;writing-mode:lr-tb;fill:#454545;fill-opacity:1;fill-rule:nonzero;stroke:none"
             transform="translate(253.3672,172)"><tspan
               id="tspan160"
               y="0"
               x="0">_</tspan></text>
</g><g
           transform="matrix(0.9798793,0,0,-0.9798793,54,788)"
           id="g164"><text
             id="text168"
             style="font-variant:normal;font-weight:normal;font-size:12px;writing-mode:lr-tb;fill:#454545;fill-opacity:1;fill-rule:nonzero;stroke:none"
             transform="translate(259.7832,172)"><tspan
               id="tspan166"
               y="0"
               x="0 7.5240002 15.048 21.879601 29.121599 33.703201 39.433201">3372)&quot;&gt;</tspan></text>
</g><g
           transform="matrix(0.9798793,0,0,-0.9798793,54,788)"
           id="g170"><text
             id="text174"
             style="font-variant:normal;font-weight:normal;font-size:12px;writing-mode:lr-tb;fill:#454545;fill-opacity:1;fill-rule:nonzero;stroke:none"
             transform="translate(63.5072,188)"><tspan
               id="tspan172"
               y="0"
               x="0 7.5636001 14.8752 18.250799 22.586399 25.554001 28.593599 31.6332 39.1968 44.9244 49.32 56.631599 64.003197 68.578796 75.662399 78.75 85.833603 88.921204 96.484802 101.0604 106.788 110.1636 114.2352 121.3188 128.31841 132.438 138.0936 144.3732 147.34081 153.6324 160.48801 168.05161 173.77921 181.0188 188.25841 193.98599 197.3616 201.4332 208.5168 215.5164 219.636 225.0636 229.2312 235.8468 246.29041 249.258 252.29761 258.34921 265.91281 271.64041 279.28799 286.3476 293.3472 300.20279 305.93039 309.306 313.37759 320.46121 327.46078 331.58041">&lt;g fill=&quot;rgb(0,0,0)&quot; font-size=&quot;22&quot; font-family=&quot;Shne&quot; font-</tspan></text>
</g><g
           transform="matrix(0.9798793,0,0,-0.9798793,54,788)"
           id="g176"><text
             id="text180"
             style="font-variant:normal;font-weight:normal;font-size:12px;writing-mode:lr-tb;fill:#454545;fill-opacity:1;fill-rule:nonzero;stroke:none"
             transform="translate(23,204)"><tspan
               id="tspan178"
               y="0"
               x="0 6.2231998 10.5828 17.098801 20.1336 26.989201 34.548 40.278 47.279999 54.369598 59.056801 69.498001 76.119598 79.154404 84.884399 88.260002 92.337601 99.4272 106.4292 110.5536 116.0964 125.1552 132.0108 134.976 142.2888 149.34959 153.7092 161.26801 166.998 174 181.0896 185.77679 196.218 202.8396 205.8744 211.6044 214.98 221.60159 226.17239 229.1376 235.7592 241.4196 244.45441 251.076 258.4476 265.30319 268.33801 275.89679 281.6268 285.00241 295.49039 298.866 309.354 312.72961 323.21759 326.5932 337.08121 340.45679 350.94479 354.3204 364.80841 368.18399 378.672 382.04761 392.53561 395.91119 406.3992 409.77481 420.26279 423.6384 434.1264 437.50201 447.98999">style=&quot;normal&quot; font-weight=&quot;normal&quot; aria-label=&quot; M M M M M M M M M M M M </tspan></text>
</g><g
           transform="matrix(0.9798793,0,0,-0.9798793,54,788)"
           id="g182"><text
             id="text186"
             style="font-variant:normal;font-weight:normal;font-size:12px;writing-mode:lr-tb;fill:#454545;fill-opacity:1;fill-rule:nonzero;stroke:none"
             transform="translate(23,220)"><tspan
               id="tspan184"
               y="0"
               x="0 10.488 13.8636">M M</tspan></text>
</g><g
           transform="matrix(0.9798793,0,0,-0.9798793,54,788)"
           id="g188"><text
             id="text192"
             style="font-variant:normal;font-weight:normal;font-size:12px;writing-mode:lr-tb;fill:#454545;fill-opacity:1;fill-rule:nonzero;stroke:none"
             transform="translate(63.5072,236)"><tspan
               id="tspan190"
               y="0"
               x="0 10.488 13.8636 24.351601 27.7272 38.215199 41.590801 52.0788 55.454399 65.942398 69.318001 79.806 83.181602 93.669601 97.045197 107.5332 110.9088 121.3968 124.7724 135.26041 138.636 149.12399 152.4996 162.98759 166.3632 176.8512 180.22681 190.7148 194.09039 204.5784 207.95399 218.442 221.8176 232.3056 235.6812 246.1692 249.5448 260.03281 263.40839 273.89639 277.272">M M M M M M M M M M M M M M M M M M M M M</tspan></text>
</g><g
           transform="matrix(0.9798793,0,0,-0.9798793,54,788)"
           id="g194"><text
             id="text198"
             style="font-variant:normal;font-weight:normal;font-size:12px;writing-mode:lr-tb;fill:#454545;fill-opacity:1;fill-rule:nonzero;stroke:none"
             transform="translate(60.1316,252)"><tspan
               id="tspan196"
               y="0"
               x="0 10.488 13.8636 24.351601 27.7272 38.215199 41.590801 52.0788 55.454399 65.942398 69.318001 79.806 83.181602 93.669601 97.045197 107.5332 110.9088 121.3968 124.7724 135.26041 138.636 149.12399 152.4996 162.98759 166.3632 176.8512 180.22681 190.7148 194.09039 204.5784 207.95399 218.442 221.8176 232.3056 235.6812 246.1692 249.5448 260.03281 263.40839 273.89639 277.272 287.76001 291.13559 301.6236 304.99921 315.48721 318.86279 329.3508 332.72641">M M M M M M M M M M M M M M M M M M M M M M M M M</tspan></text>
</g><g
           transform="matrix(0.9798793,0,0,-0.9798793,54,788)"
           id="g200"><text
             id="text204"
             style="font-variant:normal;font-weight:normal;font-size:12px;writing-mode:lr-tb;fill:#454545;fill-opacity:1;fill-rule:nonzero;stroke:none"
             transform="translate(63.5072,268)"><tspan
               id="tspan202"
               y="0"
               x="0 10.488 13.8636 24.351601 27.7272 38.215199 41.590801 52.0788 55.454399 65.942398 69.318001 79.806 83.181602 93.669601 97.045197 107.5332 110.9088 121.3968 124.7724 135.26041 138.636 149.12399 152.4996">M M M M M M M M M M M M</tspan></text>
</g><g
           transform="matrix(0.9798793,0,0,-0.9798793,54,788)"
           id="g206"><text
             id="text210"
             style="font-variant:normal;font-weight:normal;font-size:12px;writing-mode:lr-tb;fill:#454545;fill-opacity:1;fill-rule:nonzero;stroke:none"
             transform="translate(63.5072,284)"><tspan
               id="tspan208"
               y="0"
               x="0 10.488 13.8636 24.351601 27.7272 38.215199 41.590801 52.0788 55.454399 65.942398 69.318001 79.806 83.181602 93.669601 97.045197 107.5332 110.9088 121.3968 124.7724 135.26041 138.636 149.12399 152.4996 162.98759 166.3632 176.8512 180.22681 190.7148 194.09039 204.5784 207.95399 218.442 221.8176 232.3056 235.6812 246.1692 249.5448">M M M M M M M M M M M M M M M M M M M</tspan></text>
</g><g
           transform="matrix(0.9798793,0,0,-0.9798793,54,788)"
           id="g212"><text
             id="text216"
             style="font-variant:normal;font-weight:normal;font-size:12px;writing-mode:lr-tb;fill:#454545;fill-opacity:1;fill-rule:nonzero;stroke:none"
             transform="translate(63.5072,300)"><tspan
               id="tspan214"
               y="0"
               x="0 10.488 13.8636 24.351601 27.7272 38.215199 41.590801 52.0788 55.454399 65.942398 69.318001 79.806 83.181602 93.669601 97.045197 107.5332 110.9088 121.3968 124.7724 135.26041 138.636 149.12399 152.4996 162.98759 166.3632 176.8512 180.22681 190.7148 194.09039 204.5784 207.95399 218.442 221.8176 232.3056 235.6812 246.1692 249.5448 260.03281 263.40839 273.89639 277.272">M M M M M M M M M M M M M M M M M M M M M</tspan></text>
</g><g
           transform="matrix(0.9798793,0,0,-0.9798793,54,788)"
           id="g218"><text
             id="text222"
             style="font-variant:normal;font-weight:normal;font-size:12px;writing-mode:lr-tb;fill:#454545;fill-opacity:1;fill-rule:nonzero;stroke:none"
             transform="translate(63.5072,316)"><tspan
               id="tspan220"
               y="0"
               x="0 10.488 13.8636 24.351601 27.7272 38.215199 41.590801 52.0788 55.454399 65.942398 69.318001 79.806 83.181602 93.669601 97.045197 107.5332 110.9088 121.3968 124.7724 135.26041 138.636 149.12399 152.4996 162.98759 166.3632 176.8512 180.22681">M M M M M M M M M M M M M M</tspan></text>
</g><g
           transform="matrix(0.9798793,0,0,-0.9798793,54,788)"
           id="g224"><text
             id="text228"
             style="font-variant:normal;font-weight:normal;font-size:12px;writing-mode:lr-tb;fill:#454545;fill-opacity:1;fill-rule:nonzero;stroke:none"
             transform="translate(60.1316,332)"><tspan
               id="tspan226"
               y="0"
               x="0 10.488 13.8636 24.351601 27.7272 38.215199 41.590801 52.0788 55.454399 65.942398 69.318001 79.806 83.181602 93.669601 97.045197 107.5332 110.9088 121.3968 124.7724 135.26041 138.636 149.12399 152.4996 162.98759 166.3632 176.8512 180.22681 190.7148 194.09039 204.5784 207.95399 218.442 221.8176">M M M M M M M M M M M M M M M M M</tspan></text>
</g><g
           transform="matrix(0.9798793,0,0,-0.9798793,54,788)"
           id="g230"><text
             id="text234"
             style="font-variant:normal;font-weight:normal;font-size:12px;writing-mode:lr-tb;fill:#454545;fill-opacity:1;fill-rule:nonzero;stroke:none"
             transform="translate(60.1316,348)"><tspan
               id="tspan232"
               y="0"
               x="0 10.488 13.8636 24.351601 27.7272 38.215199 41.590801 52.0788 55.454399 65.942398 69.318001 79.806 83.181602 93.669601 97.045197 107.5332 110.9088 121.3968 124.7724 135.26041 138.636 149.12399 152.4996 162.98759 166.3632 176.8512 180.22681 190.7148 194.09039 204.5784 207.95399 218.442 221.8176 232.3056 235.6812 246.1692 249.5448">M M M M M M M M M M M M M M M M M M M</tspan></text>
</g><g
           transform="matrix(0.9798793,0,0,-0.9798793,54,788)"
           id="g236"><text
             id="text240"
             style="font-variant:normal;font-weight:normal;font-size:12px;writing-mode:lr-tb;fill:#454545;fill-opacity:1;fill-rule:nonzero;stroke:none"
             transform="translate(63.5072,364)"><tspan
               id="tspan238"
               y="0"
               x="0 10.488 13.8636 24.351601 27.7272 38.215199 41.590801 52.0788 55.454399 65.942398 69.318001 79.806 83.181602 93.669601 97.045197 107.5332 110.9088 121.3968 124.7724 135.26041 138.636 149.12399 152.4996 162.98759 166.3632 176.8512 180.22681 190.7148 194.09039 204.5784 207.95399 218.442 221.8176 232.3056 235.6812 246.1692 249.5448 260.03281 263.40839 273.89639 277.272 287.76001 291.13559 301.6236 304.99921">M M M M M M M M M M M M M M M M M M M M M M M</tspan></text>
</g><g
           transform="matrix(0.9798793,0,0,-0.9798793,54,788)"
           id="g242"><text
             id="text246"
             style="font-variant:normal;font-weight:normal;font-size:12px;writing-mode:lr-tb;fill:#454545;fill-opacity:1;fill-rule:nonzero;stroke:none"
             transform="translate(60.1316,380)"><tspan
               id="tspan244"
               y="0"
               x="0 10.488 13.8636 24.351601 27.7272 38.215199 41.590801 52.0788 55.454399 65.942398 69.318001 79.806 83.181602 93.669601 97.045197 107.5332 110.9088 121.3968 124.7724 135.26041 138.636 149.12399 152.4996">M M M M M M M M M M M M</tspan></text>
</g><g
           transform="matrix(0.9798793,0,0,-0.9798793,54,788)"
           id="g248"><text
             id="text252"
             style="font-variant:normal;font-weight:normal;font-size:12px;writing-mode:lr-tb;fill:#454545;fill-opacity:1;fill-rule:nonzero;stroke:none"
             transform="translate(63.5072,396)"><tspan
               id="tspan250"
               y="0"
               x="0 10.488 13.8636 24.351601 27.7272 38.215199 41.590801 52.0788 55.454399 65.942398 69.318001 79.806 83.181602 93.669601 97.045197 107.5332 110.9088 121.3968 124.7724 135.26041 138.636 149.12399 152.4996">M M M M M M M M M M M M</tspan></text>
</g><g
           transform="matrix(0.9798793,0,0,-0.9798793,54,788)"
           id="g254"><text
             id="text258"
             style="font-variant:normal;font-weight:normal;font-size:12px;writing-mode:lr-tb;fill:#454545;fill-opacity:1;fill-rule:nonzero;stroke:none"
             transform="translate(63.5072,412)"><tspan
               id="tspan256"
               y="0"
               x="0 10.488 13.8636 24.351601 27.7272 38.215199 41.590801 52.0788 55.454399 65.942398 69.318001 79.806 83.181602 93.669601 97.045197 107.5332 110.9088 121.3968 124.7724 135.26041 138.636 149.12399 152.4996 162.98759 166.3632 176.8512 180.22681 190.7148 194.09039 204.5784 207.95399 218.442 221.8176 232.3056 235.6812 246.1692 249.5448 260.03281 263.40839 273.89639 277.272">M M M M M M M M M M M M M M M M M M M M M</tspan></text>
</g><g
           transform="matrix(0.9798793,0,0,-0.9798793,54,788)"
           id="g260"><text
             id="text264"
             style="font-variant:normal;font-weight:normal;font-size:12px;writing-mode:lr-tb;fill:#454545;fill-opacity:1;fill-rule:nonzero;stroke:none"
             transform="translate(63.5072,428)"><tspan
               id="tspan262"
               y="0"
               x="0 10.488 13.8636 24.351601 27.7272 38.215199 41.590801 52.0788 55.454399 65.942398 69.318001 79.806 83.181602 93.669601 97.045197 107.5332 110.9088 121.3968 124.7724 135.26041 138.636">M M M M M M M M M M M</tspan></text>
</g><g
           transform="matrix(0.9798793,0,0,-0.9798793,54,788)"
           id="g266"><text
             id="text270"
             style="font-variant:normal;font-weight:normal;font-size:12px;writing-mode:lr-tb;fill:#454545;fill-opacity:1;fill-rule:nonzero;stroke:none"
             transform="translate(63.5072,444)"><tspan
               id="tspan268"
               y="0"
               x="0 10.488 13.8636 24.351601 27.7272 38.215199 41.590801 52.0788 55.454399 65.942398 69.318001 79.806 83.181602 93.669601 97.045197 107.5332 110.9088 121.3968 124.7724 135.26041 138.636 149.12399 152.4996 162.98759 166.3632 176.8512 180.22681 190.7148 194.09039 204.5784 207.95399 218.442 221.8176">M M M M M M M M M M M M M M M M M</tspan></text>
</g><g
           transform="matrix(0.9798793,0,0,-0.9798793,54,788)"
           id="g272"><text
             id="text276"
             style="font-variant:normal;font-weight:normal;font-size:12px;writing-mode:lr-tb;fill:#454545;fill-opacity:1;fill-rule:nonzero;stroke:none"
             transform="translate(63.5072,460)"><tspan
               id="tspan274"
               y="0"
               x="0 10.488 13.8636 24.351601 27.7272 38.215199 41.590801 52.0788 55.454399 65.942398 69.318001 79.806 83.181602 93.669601 97.045197 107.5332 110.9088 121.3968 124.7724 135.26041 138.636 149.12399 152.4996 162.98759 166.3632 176.8512 180.22681 190.7148 194.09039 204.5784 207.95399">M M M M M M M M M M M M M M M M</tspan></text>
</g><g
           transform="matrix(0.9798793,0,0,-0.9798793,54,788)"
           id="g278"><text
             id="text282"
             style="font-variant:normal;font-weight:normal;font-size:12px;writing-mode:lr-tb;fill:#454545;fill-opacity:1;fill-rule:nonzero;stroke:none"
             transform="translate(60.1316,476)"><tspan
               id="tspan280"
               y="0"
               x="0 5.73 9.1056004 13.4652 18.035999 24.6576 31.659599 37.940399 42.018002 49.107601 53.7948 64.236 71.7948 77.524803 87.966003 94.587601 98.947197 103.518 106.4832 112.776 117.3576 122.6316 125.7252 132.8148 135.9084 142.998 146.2092 151.4832 154.81081 162.0528 169.69321 174.96719 178.2948 185.5368 193.06081 200.3028 204.8844 210.6144 213.99001 221.07961 228.4044 235.026 241.7412 244.70641 249.06599 255.11279 262.6716 268.40161 273.73318 279.4632 282.83881 289.06201 293.4216 299.93759 302.97241 309.828 317.38681 323.11679 330.4884 333.45361 339.73441 347.0592 350.09399 356.48041 362.9964 366.5592">&quot; transform=&quot;matrix(1,0,0,1,291,232)&quot; opacity=&quot;1&quot; style=&quot;display: </tspan></text>
</g><g
           transform="matrix(0.9798793,0,0,-0.9798793,54,788)"
           id="g284"><text
             id="text288"
             style="font-variant:normal;font-weight:normal;font-size:12px;writing-mode:lr-tb;fill:#454545;fill-opacity:1;fill-rule:nonzero;stroke:none"
             transform="translate(23,492)"><tspan
               id="tspan286"
               y="0"
               x="0 7.3716002 10.4064 17.496 24.211201 30.7272 34.290001 40.02">block;&quot;&gt;</tspan></text>
</g><g
           transform="matrix(0.9798793,0,0,-0.9798793,54,788)"
           id="g290"><text
             id="text294"
             style="font-variant:normal;font-weight:normal;font-size:12px;writing-mode:lr-tb;fill:#454545;fill-opacity:1;fill-rule:nonzero;stroke:none"
             transform="translate(77.0096,508)"><tspan
               id="tspan292"
               y="0"
               x="0 7.5636001 14.8752 18.250799 24.4704 28.83 33.225601 40.3092 46.528801 53.384399 59.040001 62.079601 65.047203 72.046799 78.902397 85.613998 92.229599 99.5532 107.1168 112.8444 120.216 127.2156 131.5752 135.9348 141.6624 145.03799 151.2576 155.6172 160.0128 167.09641 173.31599 180.1716 185.82719 188.86681 191.8344 198.834 205.68961 208.6452 215.72881 218.6964 225.696 233.2596 238.9872 243.3828 250.4664 257.466 264.46561 271.83719 277.56479 280.9404 287.16 291.51959 295.91519 302.99881 309.21841 316.07401">&lt;g stroke-linecap=&quot;butt&quot; stroke-linejoin=&quot;round&quot; stroke-</tspan></text>
</g><g
           transform="matrix(0.9798793,0,0,-0.9798793,54,788)"
           id="g296"><text
             id="text300"
             style="font-variant:normal;font-weight:normal;font-size:12px;writing-mode:lr-tb;fill:#454545;fill-opacity:1;fill-rule:nonzero;stroke:none"
             transform="translate(23,524)"><tspan
               id="tspan298"
               y="0"
               x="0 10.4412 13.4064 17.6796 24.532801 29.106001 32.1432 35.108398 45.549599 48.514801 52.872002 60.433201 65.402397 73.119598">miterlimit=&quot;4&quot;</tspan></text>
</g><g
           transform="matrix(0.9798793,0,0,-0.9798793,54,788)"
           id="g302" /><g
           transform="matrix(0.9798793,0,0,-0.9798793,54,788)"
           id="g304"><text
             id="text308"
             style="font-variant:normal;font-weight:normal;font-size:12px;writing-mode:lr-tb;fill:#454545;fill-opacity:1;fill-rule:nonzero;stroke:none"
             transform="translate(23,556)"><tspan
               id="tspan306"
               y="0"
               x="0 4.3596001 8.9303999 15.552 22.554001 28.834801 32.912399 40.001999 44.689201 55.130402 62.689201 68.419197 78.860397 85.482002 89.841599 94.412399 97.377602 103.6704 108.252 113.526 116.6196 123.7092 126.8028 133.8924 137.10361 142.37759 145.9404 151.6008 159.1248 166.2384 169.56599 176.808 184.332 191.9964 199.55521 205.12199 212.8452 220.0872 227.32919 232.896 238.4628 246.1032 251.67 259.39319 266.952 274.18201 277.74481 283.40521 288.97198 296.63641 302.1792 305.3316 311.98801 319.54681 327.26999 334.51199 342.17639 349.8996 357.54001 365.18039 371.8956 379.53601 387.17639 394.84079 401.556 408.9744 413.556 419.28601">transform=&quot;matrix(1,0,0,1,-33.238014221191406,-187.70428466796875)&quot; </tspan></text>
</g><g
           transform="matrix(0.9798793,0,0,-0.9798793,54,788)"
           id="g310"><text
             id="text314"
             style="font-variant:normal;font-weight:normal;font-size:12px;writing-mode:lr-tb;fill:#454545;fill-opacity:1;fill-rule:nonzero;stroke:none"
             transform="translate(23,572)"><tspan
               id="tspan312"
               y="0"
               x="0 7.0896001 14.4192 21.0408 27.7584 30.719999 35.085602 41.131199 48.688801 54.242401 61.619999">opacity=&quot;0&quot;</tspan></text>
</g><g
           transform="matrix(0.9798793,0,0,-0.9798793,54,788)"
           id="g316"><text
             id="text320"
             style="font-variant:normal;font-weight:normal;font-size:12px;writing-mode:lr-tb;fill:#454545;fill-opacity:1;fill-rule:nonzero;stroke:none"
             transform="translate(90.512,588)"><tspan
               id="tspan318"
               y="0"
               x="0 6.2231998 10.5828 17.098801 20.1336 26.989201 34.548 40.278 47.649601 50.614799 56.895599 64.220398 67.255203 73.641602 80.1576 83.720398 87.096001 90.061203 97.063202 104.124 110.9796 115.5504 118.5156 122.8752 126.438 132.168">style=&quot;display: inherit;&quot;&gt;</tspan></text>
</g><g
           transform="matrix(0.9798793,0,0,-0.9798793,54,788)"
           id="g322"><text
             id="text326"
             style="font-variant:normal;font-weight:normal;font-size:12px;writing-mode:lr-tb;fill:#454545;fill-opacity:1;fill-rule:nonzero;stroke:none"
             transform="translate(90.512,604)"><tspan
               id="tspan324"
               y="0"
               x="0 7.5636001 14.8752 18.250799 22.610399 27.186001 33.801601 40.801201 47.080799 51.152401 58.236 62.919601 73.363197 80.926804 86.654404 92.933998 99.645599 106.2612 109.3008 116.1564 120.732 127.8156 131.1432 138.3828 145.45441 148.54201 155.6256 158.9532 166.19279 173.4324 178.008 183.7356">&lt;g transform=&quot;scale(0.22,0.22)&quot;&gt;</tspan></text>
</g><g
           transform="matrix(0.9798793,0,0,-0.9798793,54,788)"
           id="g328"><text
             id="text332"
             style="font-variant:normal;font-weight:normal;font-size:12px;writing-mode:lr-tb;fill:#454545;fill-opacity:1;fill-rule:nonzero;stroke:none"
             transform="translate(104.0144,620)"><tspan
               id="tspan330"
               y="0"
               x="0 7.5588002 14.8716 18.2472 24.4704 28.83 35.346001 38.380798 45.236401 52.7952 58.5252 65.896797 68.862 75.142799 82.467598 85.502403 91.888802 98.4048 101.9676 105.3432 112.3452 119.4348 126.4368 133.2924 136.85519 142.58521 150.144 157.7028 161.35921 168.672">&lt;g style=&quot;display: none;&quot;&gt;&lt;/g&gt;</tspan></text>
</g><g
           transform="matrix(0.9798793,0,0,-0.9798793,54,788)"
           id="g334"><text
             id="text338"
             style="font-variant:normal;font-weight:normal;font-size:12px;writing-mode:lr-tb;fill:#454545;fill-opacity:1;fill-rule:nonzero;stroke:none"
             transform="translate(90.512,636)"><tspan
               id="tspan336"
               y="0"
               x="0 7.5636001 11.2152 18.5268">&lt;/g&gt;</tspan></text>
</g><g
           transform="matrix(0.9798793,0,0,-0.9798793,54,788)"
           id="g340"><text
             id="text344"
             style="font-variant:normal;font-weight:normal;font-size:12px;writing-mode:lr-tb;fill:#454545;fill-opacity:1;fill-rule:nonzero;stroke:none"
             transform="translate(77.0096,652)"><tspan
               id="tspan342"
               y="0"
               x="0 7.5636001 11.2152 18.5268">&lt;/g&gt;</tspan></text>
</g><g
           transform="matrix(0.9798793,0,0,-0.9798793,54,788)"
           id="g346"><text
             id="text350"
             style="font-variant:normal;font-weight:normal;font-size:12px;writing-mode:lr-tb;fill:#454545;fill-opacity:1;fill-rule:nonzero;stroke:none"
             transform="translate(77.0096,668)"><tspan
               id="tspan348"
               y="0"
               x="0 7.5636001 14.8752 18.250799 24.4704 28.83 33.225601 40.3092 46.528801 53.384399 59.040001 62.079601 65.047203 72.046799 78.902397 85.613998 92.229599 99.5532 107.1168 112.8444 120.216 127.2156 131.5752 135.9348 141.6624 145.03799 151.2576 155.6172 160.0128 167.09641 173.31599 180.1716 185.82719 188.86681 191.8344 198.834 205.68961 208.6452 215.72881 218.6964 225.696 233.2596 238.9872 243.3828 250.4664 257.466 264.46561 271.83719 277.56479 280.9404 287.16 291.51959 295.91519 302.99881 309.21841 316.07401">&lt;g stroke-linecap=&quot;butt&quot; stroke-linejoin=&quot;round&quot; stroke-</tspan></text>
</g><g
           transform="matrix(0.9798793,0,0,-0.9798793,54,788)"
           id="g352"><text
             id="text356"
             style="font-variant:normal;font-weight:normal;font-size:12px;writing-mode:lr-tb;fill:#454545;fill-opacity:1;fill-rule:nonzero;stroke:none"
             transform="translate(23,684)"><tspan
               id="tspan354"
               y="0"
               x="0 10.4412 13.4064 17.6796 24.532801 29.106001 32.1432 35.108398 45.549599 48.514801 52.872002 60.433201 65.402397 73.119598">miterlimit=&quot;4&quot;</tspan></text>
</g><g
           transform="matrix(0.9798793,0,0,-0.9798793,54,788)"
           id="g358" /><g
           transform="matrix(0.9798793,0,0,-0.9798793,54,788)"
           id="g360"><text
             id="text364"
             style="font-variant:normal;font-weight:normal;font-size:12px;writing-mode:lr-tb;fill:#454545;fill-opacity:1;fill-rule:nonzero;stroke:none"
             transform="translate(23,716)"><tspan
               id="tspan362"
               y="0"
               x="0 4.3596001 8.9303999 15.552 22.554001 28.834801 32.912399 40.001999 44.689201 55.130402 62.689201 68.419197 78.860397 85.482002 89.841599 94.412399 97.377602 103.6704 108.252 113.526 116.6196 123.7092 126.8028 133.8924 137.10361 142.37759 145.9404 151.6008 158.8428 166.0968 169.1904 176.8308 184.47121 190.03799 197.67841 205.3188 212.8428 220.4016 227.6436 235.284 241.9404 249.4644 256.9884 264.30121 267.86401 273.52441 279.09119 286.75562 292.2984 295.45081 302.10721 309.66599 317.38919 324.6312 332.29559 340.0188 347.65921 355.29959 362.0148 369.65521 377.29559 384.95999 391.6752 399.0936 403.6752 409.40521">transform=&quot;matrix(1,0,0,1,-28.6619930267334,-187.70428466796875)&quot; </tspan></text>
</g><g
           transform="matrix(0.9798793,0,0,-0.9798793,54,788)"
           id="g366"><text
             id="text370"
             style="font-variant:normal;font-weight:normal;font-size:12px;writing-mode:lr-tb;fill:#454545;fill-opacity:1;fill-rule:nonzero;stroke:none"
             transform="translate(23,732)"><tspan
               id="tspan368"
               y="0"
               x="0 7.0896001 14.4192 21.0408 27.7584 30.719999 35.085602 41.131199 48.688801 54.242401 61.619999">opacity=&quot;0&quot;</tspan></text>
</g><g
           transform="matrix(0.9798793,0,0,-0.9798793,54,788)"
           id="g372"><text
             id="text376"
             style="font-variant:normal;font-weight:normal;font-size:12px;writing-mode:lr-tb;fill:#454545;fill-opacity:1;fill-rule:nonzero;stroke:none"
             transform="translate(90.512,748)"><tspan
               id="tspan374"
               y="0"
               x="0 6.2231998 10.5828 17.098801 20.1336 26.989201 34.548 40.278 47.649601 50.614799 56.895599 64.220398 67.255203 73.641602 80.1576 83.720398 87.096001 90.061203 97.063202 104.124 110.9796 115.5504 118.5156 122.8752 126.438 132.168">style=&quot;display: inherit;&quot;&gt;</tspan></text>
</g></g></g></g></svg>